<svg width="220" height="160" viewBox="0 0 220 160" fill="none" xmlns="http://www.w3.org/2000/svg">
      <rect width="220" height="160" fill="white"/>
      <path d="M110 40C93.4315 40 80 53.4315 80 70C80 86.5685 93.4315 100 110 100C126.569 100 140 86.5685 140 70C140 53.4315 126.569 40 110 40ZM110 90C99.0095 90 90 80.9905 90 70C90 59.0095 99.0095 50 110 50C120.991 50 130 59.0095 130 70C130 80.9905 120.991 90 110 90Z" fill="#EAEAEA"/>
      <path d="M110 55C101.729 55 95 61.7289 95 70C95 78.2711 101.729 85 110 85C118.271 85 125 78.2711 125 70C125 61.7289 118.271 55 110 55ZM110 80C104.486 80 100 75.5139 100 70C100 64.4861 104.486 60 110 60C115.514 60 120 64.4861 120 70C120 75.5139 115.514 80 110 80Z" fill="#BABABA"/>
      <path d="M170 115H50C47.2386 115 45 117.239 45 120C45 122.761 47.2386 125 50 125H170C172.761 125 175 122.761 175 120C175 117.239 172.761 115 170 115Z" fill="#F2F2F2"/>
      <path d="M150 135H70C67.2386 135 65 137.239 65 140C65 142.761 67.2386 145 70 145H150C152.761 145 155 142.761 155 140C155 137.239 152.761 135 150 135Z" fill="#F2F2F2"/>
      <path d="M155 25H65C60.5817 25 57 28.5817 57 33V33C57 37.4183 60.5817 41 65 41H155C159.418 41 163 37.4183 163 33V33C163 28.5817 159.418 25 155 25Z" fill="#F2F2F2"/>
    </svg>