<svg width="100" height="118" viewBox="0 0 100 118" fill="none" xmlns="http://www.w3.org/2000/svg">
<path d="M84.9058 35.7555V17H41.5095V58.2622H88.6794L84.9058 35.7555Z" fill="#108060"/>
<path d="M41.5095 58.2622V99.5244H96.2266L88.6794 58.2622H41.5095Z" fill="#00735C"/>
<path d="M81.1321 39.5066L100 20.7511V17H81.1321V39.5066Z" fill="#108060"/>
<path d="M45.283 17H33.9622C29.8113 17 26.415 20.376 26.415 24.5022V38.552C26.415 40.1151 27.6822 41.3822 29.2452 41.3822C30.8083 41.3822 32.0754 40.1151 32.0754 38.552V24.5022C32.0754 23.3769 32.8301 22.6267 33.9622 22.6267H45.283V17Z" fill="#108060"/>
<path d="M41.5095 99.5244C18.4906 99.5244 0 81.1439 0 58.2622H41.5095V99.5244Z" fill="#EC856F"/>
<path d="M41.5095 99.5244C64.5284 99.5244 83.019 81.1439 83.019 58.2622H41.5095V99.5244Z" fill="#DE6A5A"/>
<path d="M41.5097 71.3911H2.07568C2.64172 73.2666 3.5851 75.1422 4.52849 77.0177H41.5097V71.3911Z" fill="white"/>
<path d="M41.5095 71.3911V77.0177H78.4907C79.434 75.1422 80.1889 73.2666 80.9436 71.3911H41.5095Z" fill="#E9B99E"/>
</svg>
